<?xml version="1.0" encoding="utf-8"?>
<svg viewBox="0 0 196.485 68.618" xmlns="http://www.w3.org/2000/svg">
  <g transform="matrix(1, 0, 0, 1, -11.317734, -18.646252)">
    <g transform="matrix(1, 0, 0, 1, -160.311417, -50.872059)">
      <rect x="98.203" y="94.422" width="78.232" height="18.81" style="fill: rgb(255, 166, 0);" rx="9.405" ry="9.405" transform="matrix(0.707127, -0.707087, 0.707087, 0.707127, 35.422585, 127.504852)"/>
      <rect x="-98.203" y="-94.422" width="78.232" height="18.81" style="fill: rgb(255, 166, 0);" rx="9.405" ry="9.405" transform="matrix(-0.707127, -0.707087, -0.707087, 0.707127, 146.663126, 122.165428)"/>
    </g>
    <g transform="matrix(1, 0, 0, 1, -75.066612, -50.872059)">
      <rect x="98.203" y="94.422" width="78.232" height="18.81" style="fill: rgb(255, 166, 0);" rx="9.405" ry="9.405" transform="matrix(0.707127, -0.707087, 0.707087, 0.707127, 35.422585, 127.504852)"/>
      <rect x="-98.203" y="-94.422" width="78.232" height="18.81" style="fill: rgb(255, 166, 0);" rx="9.405" ry="9.405" transform="matrix(-0.707127, -0.707087, -0.707087, 0.707127, 146.663126, 122.165428)"/>
    </g>
  </g>
</svg>